<?xml version="1.0" standalone="no"?>
<!DOCTYPE svg PUBLIC "-//W3C//DTD SVG 20010904//EN"
 "http://www.w3.org/TR/2001/REC-SVG-20010904/DTD/svg10.dtd">
<svg version="1.0" xmlns="http://www.w3.org/2000/svg"
 width="39.000000pt" height="64.000000pt" viewBox="0 0 39.000000 64.000000"
 preserveAspectRatio="xMidYMid meet">
<metadata>
Created by potrace 1.10, written by Peter Selinger 2001-2011
</metadata>
<g transform="translate(0.000000,64.000000) scale(0.100000,-0.100000)"
fill="#000000" stroke="none">
<path d="M89 617 c-54 -28 -75 -68 -83 -159 -6 -65 -6 -68 26 -104 43 -48 104
-76 144 -65 60 16 105 -21 134 -112 9 -30 9 -41 0 -52 -16 -20 -56 -19 -64 1
-11 29 -6 54 10 54 12 0 14 7 9 33 -10 48 -29 61 -22 15 3 -21 1 -40 -4 -43
-13 -9 -10 -54 7 -100 30 -78 30 -75 -15 -75 -22 0 -41 5 -41 10 0 6 9 10 19
10 19 0 19 2 4 47 -8 27 -24 57 -34 67 -18 19 -18 19 -13 -5 3 -13 10 -39 16
-56 16 -54 4 -73 -48 -73 -24 0 -44 5 -44 10 0 6 13 10 29 10 33 0 33 5 16
127 -5 38 -3 59 8 82 9 17 11 29 6 26 -5 -4 -9 0 -9 7 0 22 -20 -15 -20 -38 0
-11 -11 -31 -25 -44 -37 -35 -28 -80 17 -80 11 0 20 -10 24 -26 7 -28 -1 -40
-31 -46 -11 -2 -20 -10 -20 -18 0 -12 19 -16 93 -18 104 -3 115 4 88 57 -21
39 -20 41 7 41 13 0 32 9 41 19 17 19 17 23 1 70 -9 28 -30 65 -46 82 -16 17
-28 32 -27 33 2 1 16 10 32 20 15 10 40 19 54 21 48 5 79 68 47 95 -8 7 -15
27 -15 44 -1 58 -35 115 -82 136 -59 27 -134 26 -189 -3z m187 -6 c31 -14 45
-28 57 -60 19 -47 22 -92 7 -107 -7 -7 -4 -10 12 -10 48 2 26 -74 -23 -79 -13
-2 -41 -13 -61 -25 -23 -13 -61 -24 -95 -27 -79 -6 -109 14 -134 87 -10 30
-16 43 -14 28 3 -14 8 -34 11 -45 5 -16 4 -16 -10 2 -13 15 -15 33 -10 85 9
94 24 123 75 148 55 27 129 28 185 3z m-152 -454 c7 -36 6 -38 -16 -35 -29 4
-35 34 -12 59 21 23 20 24 28 -24z m84 -107 c0 -8 -6 1 -13 20 -7 19 -13 42
-13 50 0 8 6 -1 13 -20 7 -19 13 -42 13 -50z"/>
<path d="M327 398 c-5 -21 -5 -21 7 -6 7 10 17 14 21 10 5 -4 5 -1 1 6 -11 19
-23 14 -29 -10z"/>
</g>
</svg>
