<?xml version="1.0" standalone="no"?>
<!DOCTYPE svg PUBLIC "-//W3C//DTD SVG 20010904//EN"
 "http://www.w3.org/TR/2001/REC-SVG-20010904/DTD/svg10.dtd">
<svg version="1.0" xmlns="http://www.w3.org/2000/svg"
 width="39.000000pt" height="62.000000pt" viewBox="0 0 39.000000 62.000000"
 preserveAspectRatio="xMidYMid meet">
<metadata>
Created by potrace 1.10, written by Peter Selinger 2001-2011
</metadata>
<g transform="translate(0.000000,62.000000) scale(0.100000,-0.100000)"
fill="#000000" stroke="none">
<path d="M89 597 c-54 -28 -75 -68 -83 -159 -6 -65 -5 -68 25 -103 29 -33 101
-79 110 -71 2 2 23 6 46 10 41 6 43 5 69 -34 27 -40 27 -42 11 -75 -9 -19 -22
-35 -28 -35 -11 0 -9 17 6 65 3 11 -1 29 -9 40 -14 19 -15 18 -7 -11 5 -18 5
-37 0 -45 -5 -8 -9 -23 -9 -35 0 -11 -14 -33 -30 -49 -25 -24 -29 -35 -25 -57
6 -26 4 -28 -22 -28 -38 0 -73 10 -73 21 0 5 13 9 30 9 21 0 28 4 24 14 -3 8
8 30 25 49 30 33 30 35 10 40 -16 4 -18 3 -8 -9 8 -9 8 -14 1 -14 -30 0 -42
81 -18 116 12 17 12 21 1 21 -7 0 -21 -15 -31 -32 -16 -31 -16 -32 10 -73 25
-40 25 -42 8 -71 -9 -17 -26 -32 -36 -33 -58 -9 -2 -52 58 -46 26 3 31 7 29
28 -3 46 4 52 34 33 16 -10 33 -24 39 -32 15 -19 44 -7 44 19 0 41 -19 63 -51
56 -36 -7 -38 1 -4 14 14 5 33 25 42 44 16 34 16 36 -11 76 -15 23 -26 43 -24
44 44 28 65 39 86 41 48 5 79 68 47 95 -8 7 -15 27 -15 44 -1 58 -35 115 -82
136 -59 27 -134 26 -189 -3z m187 -6 c31 -14 45 -28 57 -60 19 -47 22 -92 7
-107 -7 -7 -4 -10 12 -10 48 2 26 -74 -23 -79 -13 -2 -41 -13 -61 -25 -23 -13
-61 -24 -95 -27 -79 -6 -109 14 -134 87 -10 30 -16 43 -14 28 3 -14 8 -34 11
-45 5 -16 4 -16 -10 2 -13 15 -15 33 -10 85 9 94 24 123 75 148 55 27 129 28
185 3z m-169 -403 c-3 -8 -6 -5 -6 6 -1 11 2 17 5 13 3 -3 4 -12 1 -19z m165
-101 c13 -21 9 -57 -7 -57 -14 0 -20 12 -16 33 1 5 -3 6 -9 2 -11 -7 -52 13
-46 23 8 12 70 12 78 -1z"/>
<path d="M327 378 c-5 -21 -5 -21 7 -6 7 10 17 14 21 10 5 -4 5 -1 1 6 -11 19
-23 14 -29 -10z"/>
</g>
</svg>
