<?xml version="1.0" standalone="no"?>
<!DOCTYPE svg PUBLIC "-//W3C//DTD SVG 20010904//EN"
 "http://www.w3.org/TR/2001/REC-SVG-20010904/DTD/svg10.dtd">
<svg version="1.0" xmlns="http://www.w3.org/2000/svg"
 width="39.000000pt" height="63.000000pt" viewBox="0 0 39.000000 63.000000"
 preserveAspectRatio="xMidYMid meet">
<metadata>
Created by potrace 1.10, written by Peter Selinger 2001-2011
</metadata>
<g transform="translate(0.000000,63.000000) scale(0.100000,-0.100000)"
fill="#000000" stroke="none">
<path d="M89 607 c-54 -28 -75 -68 -83 -159 -6 -65 -5 -68 25 -103 29 -33 101
-79 110 -71 2 2 23 6 46 10 41 6 43 5 69 -34 27 -40 27 -42 11 -75 -9 -19 -22
-35 -28 -35 -11 0 -9 17 6 65 3 11 0 28 -7 38 -11 15 -13 5 -13 -64 0 -77 1
-82 28 -104 40 -31 33 -59 -16 -63 -21 -2 -37 1 -37 7 0 6 10 11 22 11 21 0
21 1 -4 28 -15 15 -30 39 -33 55 -4 15 -17 32 -29 38 -19 9 -19 9 -4 -4 21
-17 35 -67 19 -67 -16 0 -51 78 -51 115 0 17 7 41 16 53 12 17 12 22 2 20 -7
-2 -21 -15 -31 -30 -18 -27 -18 -28 12 -93 25 -53 37 -67 68 -80 34 -14 35
-16 18 -29 -25 -18 -11 -36 29 -36 62 0 73 39 26 90 -29 31 -30 33 -12 46 11
7 25 27 32 44 11 27 10 34 -14 71 -15 22 -26 42 -24 43 44 28 65 39 86 41 48
5 79 68 47 95 -8 7 -15 27 -15 44 -1 58 -35 115 -82 136 -59 27 -134 26 -189
-3z m187 -6 c31 -14 45 -28 57 -60 19 -47 22 -92 7 -107 -7 -7 -4 -10 12 -10
48 2 26 -74 -23 -79 -13 -2 -41 -13 -61 -25 -23 -13 -61 -24 -95 -27 -79 -6
-109 14 -134 87 -10 30 -16 43 -14 28 3 -14 8 -34 11 -45 5 -16 4 -16 -10 2
-13 15 -15 33 -10 85 9 94 24 123 75 148 55 27 129 28 185 3z m-169 -403 c-3
-8 -6 -5 -6 6 -1 11 2 17 5 13 3 -3 4 -12 1 -19z m148 -108 c3 -5 4 -10 1 -10
-3 0 -8 5 -11 10 -3 6 -4 10 -1 10 3 0 8 -4 11 -10z"/>
<path d="M327 388 c-5 -21 -5 -21 7 -6 7 10 17 14 21 10 5 -4 5 -1 1 6 -11 19
-23 14 -29 -10z"/>
</g>
</svg>
