<?xml version="1.0" standalone="no"?>
<!DOCTYPE svg PUBLIC "-//W3C//DTD SVG 20010904//EN"
 "http://www.w3.org/TR/2001/REC-SVG-20010904/DTD/svg10.dtd">
<svg version="1.0" xmlns="http://www.w3.org/2000/svg"
 width="39.000000pt" height="64.000000pt" viewBox="0 0 39.000000 64.000000"
 preserveAspectRatio="xMidYMid meet">
<metadata>
Created by potrace 1.10, written by Peter Selinger 2001-2011
</metadata>
<g transform="translate(0.000000,64.000000) scale(0.100000,-0.100000)"
fill="#000000" stroke="none">
<path d="M89 617 c-54 -28 -75 -68 -83 -159 -6 -65 -6 -68 26 -104 44 -50 104
-76 146 -65 44 13 90 -13 130 -73 35 -53 38 -82 9 -100 -36 -23 -77 35 -42 60
16 12 16 15 -5 48 -12 20 -23 36 -25 36 -8 0 5 -181 14 -198 21 -39 14 -52
-29 -52 -44 0 -56 20 -12 21 15 0 21 3 15 6 -7 2 -13 12 -13 20 0 33 -24 93
-37 93 -16 0 -16 -3 -2 -50 7 -21 9 -50 5 -64 -6 -23 -11 -26 -51 -26 -25 0
-45 5 -45 10 0 6 13 10 29 10 28 0 29 1 26 47 -1 27 -6 66 -10 89 -5 30 -3 49
9 72 9 18 14 32 12 32 -3 0 -13 -14 -22 -32 -12 -23 -14 -44 -10 -80 6 -45 5
-48 -17 -48 -42 0 -67 53 -32 67 15 5 71 103 60 103 -2 0 -14 -19 -26 -42 -12
-24 -30 -49 -40 -56 -40 -28 -4 -89 46 -80 24 5 26 3 23 -25 -2 -24 -9 -33
-28 -37 -14 -3 -26 -14 -28 -23 -3 -15 8 -17 97 -17 113 0 116 2 86 73 -20 49
-19 64 3 44 10 -10 25 -17 34 -17 18 0 48 31 48 51 0 23 -54 102 -85 127 -16
12 -26 24 -24 25 32 23 66 40 87 42 48 5 79 68 47 95 -8 7 -15 27 -15 44 -1
58 -35 115 -82 136 -59 27 -134 26 -189 -3z m187 -6 c31 -14 45 -28 57 -60 19
-47 22 -92 7 -107 -7 -7 -4 -10 12 -10 48 2 26 -74 -23 -79 -13 -2 -41 -13
-61 -25 -23 -13 -61 -24 -95 -27 -79 -6 -109 14 -134 87 -10 30 -16 43 -14 28
3 -14 8 -34 11 -45 5 -16 4 -16 -10 2 -13 15 -15 33 -10 85 9 94 24 123 75
148 55 27 129 28 185 3z m-3 -424 c-4 -6 -10 -2 -14 9 -12 31 -9 40 6 20 8
-10 11 -24 8 -29z m-64 -127 c0 -15 -6 -5 -14 25 -17 62 -17 69 0 30 8 -16 14
-41 14 -55z"/>
<path d="M327 398 c-5 -21 -5 -21 7 -6 7 10 17 14 21 10 5 -4 5 -1 1 6 -11 19
-23 14 -29 -10z"/>
</g>
</svg>
