<?xml version="1.0" standalone="no"?>
<!DOCTYPE svg PUBLIC "-//W3C//DTD SVG 20010904//EN"
 "http://www.w3.org/TR/2001/REC-SVG-20010904/DTD/svg10.dtd">
<svg version="1.0" xmlns="http://www.w3.org/2000/svg"
 width="39.000000pt" height="63.000000pt" viewBox="0 0 39.000000 63.000000"
 preserveAspectRatio="xMidYMid meet">
<metadata>
Created by potrace 1.10, written by Peter Selinger 2001-2011
</metadata>
<g transform="translate(0.000000,63.000000) scale(0.100000,-0.100000)"
fill="#000000" stroke="none">
<path d="M89 607 c-54 -28 -75 -68 -83 -159 -6 -65 -5 -68 25 -103 29 -33 101
-79 110 -71 2 2 23 6 46 10 41 6 43 5 69 -34 27 -40 27 -42 11 -75 -9 -19 -22
-35 -28 -35 -11 0 -9 17 6 65 3 11 0 28 -7 38 -11 15 -13 8 -13 -45 0 -45 -5
-70 -18 -87 -15 -22 -16 -26 -2 -41 8 -9 15 -21 15 -27 0 -11 -43 -33 -65 -33
-22 0 -18 18 5 25 16 5 18 9 8 31 -9 19 -9 30 0 45 16 25 16 27 -11 39 -21 11
-21 11 -3 -4 15 -12 17 -19 9 -27 -8 -8 -16 -3 -27 19 -20 39 -20 81 -2 108
12 17 12 21 1 21 -7 0 -21 -14 -30 -31 -17 -31 -16 -33 12 -81 41 -69 48 -104
27 -120 -9 -6 -14 -17 -10 -23 8 -13 97 -13 113 1 21 16 15 44 -15 66 l-27 20
36 33 c52 47 56 71 24 120 -15 22 -25 41 -23 42 44 28 65 39 86 41 48 5 79 68
47 95 -8 7 -15 27 -15 44 -1 58 -35 115 -82 136 -59 27 -134 26 -189 -3z m187
-6 c31 -14 45 -28 57 -60 19 -47 22 -92 7 -107 -7 -7 -4 -10 12 -10 48 2 26
-74 -23 -79 -13 -2 -41 -13 -61 -25 -23 -13 -61 -24 -95 -27 -79 -6 -109 14
-134 87 -10 30 -16 43 -14 28 3 -14 8 -34 11 -45 5 -16 4 -16 -10 2 -13 15
-15 33 -10 85 9 94 24 123 75 148 55 27 129 28 185 3z m-169 -403 c-3 -8 -6
-5 -6 6 -1 11 2 17 5 13 3 -3 4 -12 1 -19z m141 -162 c-2 -14 -11 -22 -28 -24
l-25 -2 23 13 23 13 -22 29 -23 28 28 -18 c18 -12 26 -25 24 -39z"/>
<path d="M327 388 c-5 -21 -5 -21 7 -6 7 10 17 14 21 10 5 -4 5 -1 1 6 -11 19
-23 14 -29 -10z"/>
</g>
</svg>
