<?xml version="1.0" standalone="no"?>
<!DOCTYPE svg PUBLIC "-//W3C//DTD SVG 20010904//EN"
 "http://www.w3.org/TR/2001/REC-SVG-20010904/DTD/svg10.dtd">
<svg version="1.0" xmlns="http://www.w3.org/2000/svg"
 width="39.000000pt" height="62.000000pt" viewBox="0 0 39.000000 62.000000"
 preserveAspectRatio="xMidYMid meet">
<metadata>
Created by potrace 1.10, written by Peter Selinger 2001-2011
</metadata>
<g transform="translate(0.000000,62.000000) scale(0.100000,-0.100000)"
fill="#000000" stroke="none">
<path d="M89 597 c-54 -28 -75 -68 -83 -159 -6 -65 -5 -68 25 -103 29 -33 101
-79 110 -71 2 2 23 6 46 10 41 6 43 5 69 -34 27 -40 27 -42 11 -75 -9 -19 -22
-35 -28 -35 -11 0 -9 17 6 65 3 11 -1 29 -9 40 -14 19 -15 18 -7 -11 5 -18 5
-37 0 -45 -5 -8 -9 -29 -9 -46 0 -28 5 -35 35 -47 27 -12 35 -21 35 -40 0 -33
-20 -44 -36 -21 -10 13 -11 22 -3 31 8 9 5 11 -10 7 -20 -5 -61 27 -61 50 0 7
-9 18 -21 25 -12 8 -18 9 -14 2 4 -6 -1 -22 -9 -36 -13 -19 -14 -29 -6 -45 18
-33 5 -49 -40 -49 -44 0 -56 20 -12 21 15 0 22 3 16 5 -13 5 -5 54 13 89 6 11
7 29 2 40 -10 26 -11 47 -1 41 4 -2 15 9 24 25 22 37 0 35 -25 -3 -15 -22 -17
-34 -9 -56 7 -21 6 -35 -4 -53 -7 -13 -13 -34 -14 -45 0 -12 -10 -28 -22 -36
-30 -20 -15 -38 31 -38 49 0 68 21 53 56 -9 19 -9 29 0 44 14 21 28 26 28 10
0 -5 22 -33 50 -61 43 -44 52 -50 65 -39 25 21 14 62 -20 80 -16 8 -32 16 -34
18 -3 1 4 9 16 17 11 8 26 28 33 45 11 27 10 34 -14 71 -15 22 -26 42 -24 43
44 28 65 39 86 41 48 5 79 68 47 95 -8 7 -15 27 -15 44 -1 58 -35 115 -82 136
-59 27 -134 26 -189 -3z m187 -6 c31 -14 45 -28 57 -60 19 -47 22 -92 7 -107
-7 -7 -4 -10 12 -10 48 2 26 -74 -23 -79 -13 -2 -41 -13 -61 -25 -23 -13 -61
-24 -95 -27 -79 -6 -109 14 -134 87 -10 30 -16 43 -14 28 3 -14 8 -34 11 -45
5 -16 4 -16 -10 2 -13 15 -15 33 -10 85 9 94 24 123 75 148 55 27 129 28 185
3z"/>
<path d="M327 378 c-5 -21 -5 -21 7 -6 7 10 17 14 21 10 5 -4 5 -1 1 6 -11 19
-23 14 -29 -10z"/>
</g>
</svg>
